<?xml version="1.0" encoding="UTF-8" standalone="no"?>
<!-- Created with Inkscape (http://www.inkscape.org/) -->

<svg
   width="48"
   height="48"
   viewBox="0 0 48 48"
   version="1.1"
   id="svg1"
   xml:space="preserve"
   xmlns="http://www.w3.org/2000/svg"
   xmlns:svg="http://www.w3.org/2000/svg"><defs
     id="defs1" /><g
     id="layer1"><g
       id="g11"
       transform="matrix(1.7599525,0,0,1.7599525,-19.768506,-17.747311)"
       style="fill:#012e2a;fill-opacity:1"><path
         id="path1"
         style="display:inline;fill:#012e2a;stroke-width:1.12252;fill-opacity:1"
         d="m 22.726562,11.300781 -9.189453,22.044922 3.166016,-0.248047 0.1875,2.917969 16.703125,0.125 -0.125,-2.298828 h 2.732422 l -2.482422,-7.824219 -4.222656,0.248047 z m 0.248047,6.769531 2.111329,5.525391 -4.222657,-0.06055 z m 8.570313,11.984376 -1.179688,1.923828 -1.117187,-1.800782 z m -5.464844,0.0625 2.421875,0.06055 -1.242187,1.490235 z m -0.93164,0.433593 1.863281,1.925781 -2.048828,1.490235 z M 28.875,31.171875 29.806641,32.351562 28.75,33.841797 27.632812,32.228516 Z m 2.855469,0.0625 0.0625,2.544922 -0.994141,-1.240235 z m -4.59375,1.675781 1.117187,1.490235 -2.421875,-0.123047 z m 3.103515,0.310547 1.117188,1.179688 h -2.171875 z" /><path
         style="fill:#012e2a;stroke-width:1.12252;fill-opacity:1"
         d="m 29.681759,22.354463 0.124192,2.049159 h 1.862872 v -2.17335 z"
         id="path9" /><path
         id="path10"
         style="fill:#012e2a;stroke-width:1.12252;fill-opacity:1"
         d="m 30.865234,14.589844 c -0.08162,0 -0.126953,0.002 -0.126953,0.002 0,0 -3.043036,0.06196 -3.353515,2.980469 l 1.828125,0.06055 a 1.4240843,1.2625903 0 0 1 -0.0332,-0.267578 1.4240843,1.2625903 0 0 1 1.423828,-1.261718 1.4240843,1.2625903 0 0 1 1.423828,1.261718 1.4240843,1.2625903 0 0 1 -0.189453,0.63086 c -0.01741,0.03557 -0.05181,0.08943 -0.121094,0.158203 a 1.4240843,1.2625903 0 0 1 -0.511719,0.357422 c -0.293376,0.159792 -0.720722,0.345077 -1.33789,0.550781 l 0.1875,-0.06055 -0.248047,2.296875 1.986328,0.125 -0.185547,-1.429687 c 0,0 2.23397,-0.372448 2.171875,-2.980469 -0.05434,-2.282018 -2.34271,-2.423828 -2.914063,-2.423828 z" /></g></g></svg>
